<?xml version="1.0" encoding="UTF-8" standalone="no"?>
<!-- Created with Inkscape (http://www.inkscape.org/) -->

<svg
   width="100"
   height="100"
   viewBox="0 0 26.458333 26.458333"
   version="1.1"
   id="svg5"
   inkscape:version="1.2 (dc2aedaf03, 2022-05-15)"
   sodipodi:docname="AboutButtonIcon.svg"
   inkscape:export-filename="AboutButtonIcon.png"
   inkscape:export-xdpi="96"
   inkscape:export-ydpi="96"
   xmlns:inkscape="http://www.inkscape.org/namespaces/inkscape"
   xmlns:sodipodi="http://sodipodi.sourceforge.net/DTD/sodipodi-0.dtd"
   xmlns:xlink="http://www.w3.org/1999/xlink"
   xmlns="http://www.w3.org/2000/svg"
   xmlns:svg="http://www.w3.org/2000/svg">
  <sodipodi:namedview
     id="namedview7"
     pagecolor="#ffffff"
     bordercolor="#000000"
     borderopacity="0.25"
     inkscape:showpageshadow="2"
     inkscape:pageopacity="0.0"
     inkscape:pagecheckerboard="0"
     inkscape:deskcolor="#d1d1d1"
     inkscape:document-units="px"
     showgrid="true"
     inkscape:zoom="6.675088"
     inkscape:cx="64.268816"
     inkscape:cy="33.707421"
     inkscape:window-width="2256"
     inkscape:window-height="1398"
     inkscape:window-x="-11"
     inkscape:window-y="-11"
     inkscape:window-maximized="1"
     inkscape:current-layer="layer1">
    <inkscape:grid
       id="grid9"
       spacingx="2.6458333"
       spacingy="2.6458333" />
  </sodipodi:namedview>
  <defs
     id="defs2">
    <linearGradient
       inkscape:collect="always"
       id="linearGradient5442">
      <stop
         style="stop-color:#008080;stop-opacity:1;"
         offset="0"
         id="stop5438" />
      <stop
         style="stop-color:#008080;stop-opacity:0.40000001;"
         offset="1"
         id="stop5440" />
    </linearGradient>
    <linearGradient
       inkscape:collect="always"
       xlink:href="#linearGradient5442"
       id="linearGradient5444"
       x1="13.229166"
       y1="5.2916665"
       x2="13.229166"
       y2="21.166666"
       gradientUnits="userSpaceOnUse" />
  </defs>
  <g
     inkscape:label="Layer 1"
     inkscape:groupmode="layer"
     id="layer1">
    <path
       d="m 17.88694,9.0454373 q 0,1.0803837 -0.385851,1.9292557 -0.385851,0.837848 -1.014237,1.488283 -0.617362,0.628386 -1.422137,1.179602 -0.804775,0.551216 -1.708769,1.069359 v 2.480471 h -1.973353 v -3.362417 q 0.716581,-0.407899 1.543405,-0.892969 0.837848,-0.48507 1.367015,-0.981164 0.63941,-0.573265 0.992188,-1.179602 0.352779,-0.617362 0.352779,-1.5654537 0,-1.2457476 -0.848873,-1.8520851 -0.837848,-0.6173617 -2.17179,-0.6173617 -1.190626,0 -2.259985,0.3748268 Q 9.2989971,7.491009 8.6816354,7.8768601 H 8.5713922 V 5.6278995 q 0.7717022,-0.2976566 1.9513048,-0.5291672 1.190626,-0.242535 2.24896,-0.242535 2.370228,0 3.737244,1.1575533 1.378039,1.1465289 1.378039,3.0316867 z M 13.532335,21.602135 h -2.248961 v -2.326131 h 2.248961 z"
       id="path4854"
       style="font-size:22.5778px;fill:url(#linearGradient5444);fill-opacity:1;stroke-width:1.5875;stroke-linecap:round;stroke-linejoin:round" />
  </g>
</svg>
